<?xml version="1.0" encoding="utf-8"?>
<!-- Generator: Adobe Illustrator 24.0.3, SVG Export Plug-In . SVG Version: 6.00 Build 0)  -->
<svg version="1.1" id="Camada_1" xmlns="http://www.w3.org/2000/svg" xmlns:xlink="http://www.w3.org/1999/xlink" x="0px" y="0px"
	 viewBox="0 0 10.4 10.4" style="enable-background:new 0 0 10.4 10.4;" xml:space="preserve">
<style type="text/css">
	.st0{fill-rule:evenodd;clip-rule:evenodd;fill:#F04837;}
</style>
<title>Ativo 2</title>
<g id="Camada_2_1_">
	<g id="Camada_1-2">
		<path class="st0" d="M5.2,9.5c2.4,0,4.3-1.9,4.3-4.3S7.6,0.9,5.2,0.9S0.9,2.8,0.9,5.2l0,0C0.9,7.6,2.8,9.5,5.2,9.5z M5.2,10.3
			c2.9,0,5.2-2.3,5.2-5.2C10.4,2.3,8,0,5.2,0S0,2.3,0,5.2c0,0,0,0,0,0C0,8,2.3,10.3,5.2,10.3C5.2,10.4,5.2,10.4,5.2,10.3z"/>
		<path class="st0" d="M4.6,2.5h0.7v2.9h2.5v0.7H4.6V2.5z"/>
	</g>
</g>
</svg>
